<svg xmlns="http://www.w3.org/2000/svg" viewBox="0 0 1200 800" width="1200" height="800">
  <defs>
    <!-- Floor tile pattern -->
    <pattern id="tiles" x="0" y="0" width="60" height="60" patternUnits="userSpaceOnUse">
      <rect width="60" height="60" fill="#F5EDE0"/>
      <rect width="58" height="58" x="1" y="1" fill="#FAF3EA" rx="1"/>
    </pattern>
    <!-- Garden grass pattern -->
    <pattern id="grass" x="0" y="0" width="20" height="20" patternUnits="userSpaceOnUse">
      <rect width="20" height="20" fill="#C8D8A8"/>
      <circle cx="5" cy="5" r="2" fill="#B8CC94" opacity="0.5"/>
      <circle cx="15" cy="13" r="1.5" fill="#B8CC94" opacity="0.5"/>
      <circle cx="10" cy="17" r="1" fill="#A8BC84" opacity="0.4"/>
    </pattern>
    <!-- Stone path -->
    <pattern id="stone" x="0" y="0" width="40" height="30" patternUnits="userSpaceOnUse">
      <rect width="40" height="30" fill="#D4C9B0"/>
      <rect x="1" y="1" width="18" height="13" rx="2" fill="#DDD3BA"/>
      <rect x="21" y="1" width="18" height="13" rx="2" fill="#D8CDB5"/>
      <rect x="1" y="16" width="18" height="13" rx="2" fill="#D8CDB5"/>
      <rect x="21" y="16" width="18" height="13" rx="2" fill="#DDD3BA"/>
    </pattern>
    <filter id="shadow" x="-10%" y="-10%" width="120%" height="120%">
      <feDropShadow dx="0" dy="2" stdDeviation="3" flood-color="#4A3C32" flood-opacity="0.15"/>
    </filter>
    <filter id="wallshadow">
      <feDropShadow dx="2" dy="4" stdDeviation="6" flood-color="#4A3C32" flood-opacity="0.2"/>
    </filter>
  </defs>

  <!-- ── EXTERIOR GARDENS ── -->
  <rect x="0" y="0" width="1200" height="800" fill="url(#grass)"/>

  <!-- Garden paths -->
  <rect x="540" y="680" width="120" height="120" fill="url(#stone)" opacity="0.9"/>
  <!-- Entrance path -->
  <path d="M540 800 L540 680 Q600 660 660 680 L660 800 Z" fill="#D4C9B0" opacity="0.6"/>

  <!-- Flower beds left -->
  <ellipse cx="80" cy="200" rx="55" ry="35" fill="#B8C89A" opacity="0.7"/>
  <ellipse cx="80" cy="200" rx="35" ry="20" fill="#A8B88A"/>
  <circle cx="65" cy="193" r="8" fill="#E8A0A0" opacity="0.8"/>
  <circle cx="82" cy="188" r="6" fill="#F0C0C0" opacity="0.8"/>
  <circle cx="95" cy="197" r="7" fill="#E090A0" opacity="0.8"/>
  <circle cx="72" cy="207" r="5" fill="#F0B0B0" opacity="0.8"/>
  <ellipse cx="80" cy="600" rx="55" ry="35" fill="#B8C89A" opacity="0.7"/>
  <ellipse cx="80" cy="600" rx="35" ry="20" fill="#A8B88A"/>
  <circle cx="65" cy="593" r="8" fill="#E8A0A0" opacity="0.8"/>
  <circle cx="82" cy="588" r="6" fill="#F0C0C0" opacity="0.8"/>
  <circle cx="95" cy="597" r="7" fill="#E090A0" opacity="0.8"/>

  <!-- Flower beds right -->
  <ellipse cx="1120" cy="200" rx="55" ry="35" fill="#B8C89A" opacity="0.7"/>
  <ellipse cx="1120" cy="200" rx="35" ry="20" fill="#A8B88A"/>
  <circle cx="1105" cy="193" r="8" fill="#E8A0A0" opacity="0.8"/>
  <circle cx="1122" cy="188" r="6" fill="#F0C0C0" opacity="0.8"/>
  <circle cx="1135" cy="197" r="7" fill="#E090A0" opacity="0.8"/>
  <ellipse cx="1120" cy="600" rx="55" ry="35" fill="#B8C89A" opacity="0.7"/>
  <ellipse cx="1120" cy="600" rx="35" ry="20" fill="#A8B88A"/>
  <circle cx="1105" cy="593" r="8" fill="#E8A0A0" opacity="0.8"/>
  <circle cx="1122" cy="588" r="6" fill="#F0C0C0" opacity="0.8"/>
  <circle cx="1135" cy="597" r="7" fill="#E090A0" opacity="0.8"/>

  <!-- Trees (corners) -->
  <circle cx="145" cy="90" r="38" fill="#8EAE6E" opacity="0.85"/>
  <circle cx="145" cy="90" r="28" fill="#9EBE7E" opacity="0.9"/>
  <circle cx="145" cy="85" r="18" fill="#AEce8E"/>
  <circle cx="1055" cy="90" r="38" fill="#8EAE6E" opacity="0.85"/>
  <circle cx="1055" cy="90" r="28" fill="#9EBE7E" opacity="0.9"/>
  <circle cx="1055" cy="85" r="18" fill="#AEce8E"/>
  <circle cx="145" cy="710" r="38" fill="#8EAE6E" opacity="0.85"/>
  <circle cx="145" cy="710" r="28" fill="#9EBE7E" opacity="0.9"/>
  <circle cx="145" cy="705" r="18" fill="#AEce8E"/>
  <circle cx="1055" cy="710" r="38" fill="#8EAE6E" opacity="0.85"/>
  <circle cx="1055" cy="710" r="28" fill="#9EBE7E" opacity="0.9"/>
  <circle cx="1055" cy="705" r="18" fill="#AEce8E"/>

  <!-- ── MAIN BUILDING WALLS ── -->
  <!-- Outer wall shadow -->
  <rect x="168" y="58" width="868" height="684" rx="4" fill="#4A3C32" opacity="0.15" filter="url(#wallshadow)"/>
  <!-- Outer walls -->
  <rect x="160" y="50" width="880" height="700" rx="4" fill="#C4B4A0"/>
  <!-- Inner floor -->
  <rect x="178" y="68" width="844" height="664" rx="2" fill="url(#tiles)"/>

  <!-- ── COLUMNS (structural, visible from top) ── -->
  <!-- Left column row -->
  <rect x="178" y="68" width="22" height="22" rx="3" fill="#B8A890" filter="url(#shadow)"/>
  <rect x="178" y="200" width="22" height="22" rx="3" fill="#B8A890" filter="url(#shadow)"/>
  <rect x="178" y="332" width="22" height="22" rx="3" fill="#B8A890" filter="url(#shadow)"/>
  <rect x="178" y="464" width="22" height="22" rx="3" fill="#B8A890" filter="url(#shadow)"/>
  <rect x="178" y="596" width="22" height="22" rx="3" fill="#B8A890" filter="url(#shadow)"/>
  <rect x="178" y="710" width="22" height="22" rx="3" fill="#B8A890" filter="url(#shadow)"/>
  <!-- Right column row -->
  <rect x="1000" y="68" width="22" height="22" rx="3" fill="#B8A890" filter="url(#shadow)"/>
  <rect x="1000" y="200" width="22" height="22" rx="3" fill="#B8A890" filter="url(#shadow)"/>
  <rect x="1000" y="332" width="22" height="22" rx="3" fill="#B8A890" filter="url(#shadow)"/>
  <rect x="1000" y="464" width="22" height="22" rx="3" fill="#B8A890" filter="url(#shadow)"/>
  <rect x="1000" y="596" width="22" height="22" rx="3" fill="#B8A890" filter="url(#shadow)"/>
  <rect x="1000" y="710" width="22" height="22" rx="3" fill="#B8A890" filter="url(#shadow)"/>

  <!-- ── WINDOWS LEFT WALL ── -->
  <rect x="160" y="130" width="18" height="50" rx="2" fill="#D4EEF8" opacity="0.85"/>
  <line x1="169" y1="130" x2="169" y2="180" stroke="#B8D4E8" stroke-width="1"/>
  <rect x="160" y="260" width="18" height="50" rx="2" fill="#D4EEF8" opacity="0.85"/>
  <line x1="169" y1="260" x2="169" y2="310" stroke="#B8D4E8" stroke-width="1"/>
  <rect x="160" y="390" width="18" height="50" rx="2" fill="#D4EEF8" opacity="0.85"/>
  <line x1="169" y1="390" x2="169" y2="440" stroke="#B8D4E8" stroke-width="1"/>
  <rect x="160" y="520" width="18" height="50" rx="2" fill="#D4EEF8" opacity="0.85"/>
  <line x1="169" y1="520" x2="169" y2="570" stroke="#B8D4E8" stroke-width="1"/>
  <rect x="160" y="630" width="18" height="50" rx="2" fill="#D4EEF8" opacity="0.85"/>
  <line x1="169" y1="630" x2="169" y2="680" stroke="#B8D4E8" stroke-width="1"/>

  <!-- ── WINDOWS RIGHT WALL ── -->
  <rect x="1022" y="130" width="18" height="50" rx="2" fill="#D4EEF8" opacity="0.85"/>
  <line x1="1031" y1="130" x2="1031" y2="180" stroke="#B8D4E8" stroke-width="1"/>
  <rect x="1022" y="260" width="18" height="50" rx="2" fill="#D4EEF8" opacity="0.85"/>
  <line x1="1031" y1="260" x2="1031" y2="310" stroke="#B8D4E8" stroke-width="1"/>
  <rect x="1022" y="390" width="18" height="50" rx="2" fill="#D4EEF8" opacity="0.85"/>
  <line x1="1031" y1="390" x2="1031" y2="440" stroke="#B8D4E8" stroke-width="1"/>
  <rect x="1022" y="520" width="18" height="50" rx="2" fill="#D4EEF8" opacity="0.85"/>
  <line x1="1031" y1="520" x2="1031" y2="570" stroke="#B8D4E8" stroke-width="1"/>
  <rect x="1022" y="630" width="18" height="50" rx="2" fill="#D4EEF8" opacity="0.85"/>
  <line x1="1031" y1="630" x2="1031" y2="680" stroke="#B8D4E8" stroke-width="1"/>

  <!-- ── WINDOWS TOP WALL ── -->
  <rect x="280" y="50" width="60" height="18" rx="2" fill="#D4EEF8" opacity="0.85"/>
  <line x1="280" y1="59" x2="340" y2="59" stroke="#B8D4E8" stroke-width="1"/>
  <rect x="460" y="50" width="60" height="18" rx="2" fill="#D4EEF8" opacity="0.85"/>
  <line x1="460" y1="59" x2="520" y2="59" stroke="#B8D4E8" stroke-width="1"/>
  <rect x="680" y="50" width="60" height="18" rx="2" fill="#D4EEF8" opacity="0.85"/>
  <line x1="680" y1="59" x2="740" y2="59" stroke="#B8D4E8" stroke-width="1"/>
  <rect x="860" y="50" width="60" height="18" rx="2" fill="#D4EEF8" opacity="0.85"/>
  <line x1="860" y1="59" x2="920" y2="59" stroke="#B8D4E8" stroke-width="1"/>

  <!-- ── HEAD TABLE STAGE AREA (top) ── -->
  <rect x="340" y="68" width="520" height="90" rx="0" fill="#EDE0CD" opacity="0.85"/>
  <rect x="348" y="72" width="504" height="82" rx="2" fill="#E8D8C4" opacity="0.6"/>
  <!-- Stage steps -->
  <rect x="380" y="150" width="440" height="8" rx="1" fill="#C8B89A" opacity="0.5"/>
  <rect x="400" y="155" width="400" height="5" rx="1" fill="#C0B090" opacity="0.4"/>
  <!-- Stage label -->
  <text x="600" y="116" text-anchor="middle" font-family="Georgia, serif" font-size="13" fill="#8C6F5F" letter-spacing="3" opacity="0.7">MESA DE HONOR</text>

  <!-- ── DANCE FLOOR ── -->
  <rect x="440" y="295" width="320" height="220" rx="4" fill="#E8D8C4" opacity="0.5"/>
  <rect x="448" y="303" width="304" height="204" rx="2" fill="#EDE4D6" opacity="0.4"/>
  <!-- Dance floor grid -->
  <line x1="520" y1="295" x2="520" y2="515" stroke="#D4C4B0" stroke-width="0.8" opacity="0.6"/>
  <line x1="600" y1="295" x2="600" y2="515" stroke="#D4C4B0" stroke-width="0.8" opacity="0.6"/>
  <line x1="680" y1="295" x2="680" y2="515" stroke="#D4C4B0" stroke-width="0.8" opacity="0.6"/>
  <line x1="440" y1="375" x2="760" y2="375" stroke="#D4C4B0" stroke-width="0.8" opacity="0.6"/>
  <line x1="440" y1="435" x2="760" y2="435" stroke="#D4C4B0" stroke-width="0.8" opacity="0.6"/>
  <text x="600" y="412" text-anchor="middle" font-family="Georgia, serif" font-size="12" fill="#A89078" letter-spacing="3" opacity="0.6">PISTA DE BAILE</text>

  <!-- ── DJ / BAR CORNER ── -->
  <!-- Bar (top-right) -->
  <rect x="870" y="78" width="120" height="55" rx="3" fill="#D4C4A8" filter="url(#shadow)"/>
  <rect x="876" y="84" width="108" height="43" rx="2" fill="#DCCEB4" opacity="0.8"/>
  <text x="930" y="109" text-anchor="middle" font-family="Georgia, serif" font-size="11" fill="#8C6F5F" letter-spacing="2" opacity="0.75">BAR</text>

  <!-- DJ booth (top-left of floor) -->
  <rect x="210" y="78" width="110" height="55" rx="3" fill="#D4C4A8" filter="url(#shadow)"/>
  <rect x="216" y="84" width="98" height="43" rx="2" fill="#DCCEB4" opacity="0.8"/>
  <text x="265" y="109" text-anchor="middle" font-family="Georgia, serif" font-size="11" fill="#8C6F5F" letter-spacing="2" opacity="0.75">DJ</text>

  <!-- ── ENTRANCE AREA (bottom) ── -->
  <!-- Entrance hall -->
  <rect x="460" y="690" width="280" height="42" rx="0" fill="#DDD0BC" opacity="0.85"/>
  <rect x="460" y="730" width="280" height="0" fill="none" stroke="#C4B4A0" stroke-width="2"/>
  <!-- Entrance doors -->
  <rect x="520" y="690" width="50" height="42" rx="0" fill="#C8B89A" opacity="0.7"/>
  <rect x="630" y="690" width="50" height="42" rx="0" fill="#C8B89A" opacity="0.7"/>
  <!-- Door arcs -->
  <path d="M520 690 Q545 668 570 690" fill="none" stroke="#B0A080" stroke-width="1.5" opacity="0.7"/>
  <path d="M630 690 Q655 668 680 690" fill="none" stroke="#B0A080" stroke-width="1.5" opacity="0.7"/>
  <text x="600" y="715" text-anchor="middle" font-family="Georgia, serif" font-size="11" fill="#8C6F5F" letter-spacing="3" opacity="0.7">ENTRADA</text>

  <!-- ── SIDE ROOMS / BATHROOMS ── -->
  <!-- Left side room -->
  <rect x="178" y="68" width="32" height="80" rx="0" fill="#E8DDD0" opacity="0.7"/>
  <rect x="178" y="68" width="32" height="78" rx="0" fill="none" stroke="#C4B4A0" stroke-width="1" opacity="0.5"/>
  <text x="194" y="115" text-anchor="middle" font-family="Georgia, serif" font-size="9" fill="#8C6F5F" opacity="0.6" transform="rotate(-90, 194, 115)">WC</text>
  <!-- Right side room -->
  <rect x="990" y="68" width="32" height="80" rx="0" fill="#E8DDD0" opacity="0.7"/>
  <rect x="990" y="68" width="32" height="78" rx="0" fill="none" stroke="#C4B4A0" stroke-width="1" opacity="0.5"/>
  <text x="1006" y="115" text-anchor="middle" font-family="Georgia, serif" font-size="9" fill="#8C6F5F" opacity="0.6" transform="rotate(-90, 1006, 115)">WC</text>

  <!-- ── DECORATIVE PLANTS (indoor) ── -->
  <circle cx="215" cy="220" r="12" fill="#8EAE6E" opacity="0.6"/>
  <circle cx="215" cy="220" r="7" fill="#9EBE7E" opacity="0.7"/>
  <circle cx="985" cy="220" r="12" fill="#8EAE6E" opacity="0.6"/>
  <circle cx="985" cy="220" r="7" fill="#9EBE7E" opacity="0.7"/>
  <circle cx="215" cy="580" r="12" fill="#8EAE6E" opacity="0.6"/>
  <circle cx="215" cy="580" r="7" fill="#9EBE7E" opacity="0.7"/>
  <circle cx="985" cy="580" r="12" fill="#8EAE6E" opacity="0.6"/>
  <circle cx="985" cy="580" r="7" fill="#9EBE7E" opacity="0.7"/>

  <!-- ── WALL OUTLINE (on top) ── -->
  <rect x="160" y="50" width="880" height="700" rx="4" fill="none" stroke="#A89070" stroke-width="3"/>
  <rect x="178" y="68" width="844" height="664" rx="2" fill="none" stroke="#C4B49A" stroke-width="1" opacity="0.5"/>
</svg>
